/* XPM */
static char * zudoku32x32_xpm[] = {
"32 32 367 2",
"  	c #030303",
". 	c #060606",
"+ 	c #040406",
"@ 	c #040405",
"# 	c #040403",
"$ 	c #040404",
"% 	c #050505",
"& 	c #010101",
"* 	c #E4E4E4",
"= 	c #EDF0F1",
"- 	c #EFEFF1",
"; 	c #EEEEED",
"> 	c #EDEEEE",
", 	c #EEEFED",
"' 	c #EEF0EE",
") 	c #F0EFEC",
"! 	c #EFF0EF",
"~ 	c #BBBBBB",
"{ 	c #D1D1D1",
"] 	c #F0F0F0",
"^ 	c #F0EFEF",
"/ 	c #F0EEEF",
"( 	c #EFEEEE",
"_ 	c #F0EEED",
": 	c #EDEFF1",
"< 	c #BCBCBC",
"[ 	c #F0F0EF",
"} 	c #EFEFF0",
"| 	c #EFF0F0",
"1 	c #FDFFFF",
"2 	c #FFFEFB",
"3 	c #EAEAE4",
"4 	c #B8B8B6",
"5 	c #E4E3E6",
"6 	c #F8FCFD",
"7 	c #FDFFFE",
"8 	c #C4C4C4",
"9 	c #DBDBDB",
"0 	c #FFFFFF",
"a 	c #FFFEFD",
"b 	c #C9C8C8",
"c 	c #B2B4B4",
"d 	c #B5B3B3",
"e 	c #CACDD2",
"f 	c #FEFEFE",
"g 	c #FEFCFC",
"h 	c #F2EFEB",
"i 	c #2B2825",
"j 	c #1D1E1D",
"k 	c #19181C",
"l 	c #CCD3D7",
"m 	c #FEFFFC",
"n 	c #FDFFFD",
"o 	c #FFFEFA",
"p 	c #46453F",
"q 	c #1F2625",
"r 	c #25262B",
"s 	c #6D717C",
"t 	c #EFEEEF",
"u 	c #FEFBFE",
"v 	c #BCB9B9",
"w 	c #2E2F31",
"x 	c #F1F7F8",
"y 	c #555551",
"z 	c #7F898E",
"A 	c #FCFEFE",
"B 	c #FDFDFE",
"C 	c #DADADA",
"D 	c #FEFDFA",
"E 	c #302724",
"F 	c #CFD6D9",
"G 	c #E5E6E8",
"H 	c #F8FBFF",
"I 	c #EEEEEE",
"J 	c #EBEBEB",
"K 	c #F8F8FA",
"L 	c #F0EFF1",
"M 	c #EFEFED",
"N 	c #393934",
"O 	c #969DA1",
"P 	c #F8F8FB",
"Q 	c #FAF8F6",
"R 	c #C1C1C1",
"S 	c #D7D7D7",
"T 	c #F9F9F9",
"U 	c #F8F7F4",
"V 	c #140F0F",
"W 	c #19191C",
"X 	c #121313",
"Y 	c #BCC5CD",
"Z 	c #F8F8F8",
"` 	c #D8D8D8",
" .	c #E7E7E7",
"..	c #F1F2F3",
"+.	c #F2F2F1",
"@.	c #E7E4E1",
"#.	c #514E4B",
"$.	c #4F5053",
"%.	c #E7ECEA",
"&.	c #F2F2F0",
"*.	c #F6F1F2",
"=.	c #BEBEBE",
"-.	c #D4D4D4",
";.	c #F2F2F2",
">.	c #F0F0EC",
",.	c #A1A1A0",
"'.	c #E6E5E6",
").	c #5A5B56",
"!.	c #606A77",
"~.	c #BDBDBD",
"{.	c #E8E8E8",
"].	c #E3E3E3",
"^.	c #EFEAE6",
"/.	c #4E4A47",
"(.	c #808183",
"_.	c #E8EAF1",
":.	c #E9F0ED",
"<.	c #ECEFEC",
"[.	c #F0ECF1",
"}.	c #BABABA",
"|.	c #D0D0D0",
"1.	c #D4D2D0",
"2.	c #686565",
"3.	c #E9E9ED",
"4.	c #656662",
"5.	c #606874",
"6.	c #E1E1E1",
"7.	c #EDECEB",
"8.	c #C0B8B2",
"9.	c #0E0A09",
"0.	c #262A2E",
"a.	c #242829",
"b.	c #818792",
"c.	c #E8ECF3",
"d.	c #EDEDE7",
"e.	c #B9B9B9",
"f.	c #CFCFCF",
"g.	c #ECECEC",
"h.	c #E8E5E1",
"i.	c #2F2929",
"j.	c #323239",
"k.	c #111211",
"l.	c #B1B8C3",
"m.	c #E2E2E2",
"n.	c #EDEDEC",
"o.	c #D5D2CF",
"p.	c #9B9A99",
"q.	c #999A9B",
"r.	c #989A99",
"s.	c #BFC1C8",
"t.	c #EAECF0",
"u.	c #ECECE8",
"v.	c #EDEBEA",
"w.	c #DCDAD9",
"x.	c #9E9EA1",
"y.	c #C5C5C4",
"z.	c #B3B3B3",
"A.	c #959595",
"B.	c #A6A6A6",
"C.	c #B8B8B8",
"D.	c #949494",
"E.	c #B4B4B4",
"F.	c #090909",
"G.	c #D2D2D2",
"H.	c #DCDCDC",
"I.	c #ACACAC",
"J.	c #C0C0C0",
"K.	c #ADADAD",
"L.	c #D9D9D9",
"M.	c #CECECE",
"N.	c #EDEDED",
"O.	c #FBFBFB",
"P.	c #D3D3D3",
"Q.	c #FEFEFB",
"R.	c #EEEBE4",
"S.	c #2B2829",
"T.	c #181A18",
"U.	c #211F20",
"V.	c #D4DBDD",
"W.	c #FEFFFE",
"X.	c #C4C4C3",
"Y.	c #FEFFFD",
"Z.	c #FFFCF8",
"`.	c #696160",
" +	c #121118",
".+	c #181918",
"++	c #CED1D7",
"@+	c #FDFEFA",
"#+	c #FFFEFE",
"$+	c #EFEFEF",
"%+	c #FCFBFE",
"&+	c #BAB4B3",
"*+	c #201A24",
"=+	c #F0F2F4",
"-+	c #4A4846",
";+	c #99A2A6",
">+	c #FDFEFE",
",+	c #C4C4C2",
"'+	c #FDFEFD",
")+	c #E9E6E2",
"!+	c #161113",
"~+	c #D4D6DB",
"{+	c #78786F",
"]+	c #6B717D",
"^+	c #F8FEF8",
"/+	c #FAF9F6",
"(+	c #F2ECE2",
"_+	c #383336",
":+	c #333534",
"<+	c #1D1B1B",
"[+	c #D7E1E6",
"}+	c #F9FAFA",
"|+	c #FAFAFA",
"1+	c #C2C1C1",
"2+	c #F9FAFB",
"3+	c #E2DEDD",
"4+	c #110F11",
"5+	c #D6DBDF",
"6+	c #7E7E72",
"7+	c #444A5A",
"8+	c #F1FCF7",
"9+	c #F7FAFC",
"0+	c #F3F2F2",
"a+	c #D5CEC6",
"b+	c #161115",
"c+	c #979A99",
"d+	c #2A2827",
"e+	c #8C959C",
"f+	c #F2F4F4",
"g+	c #F3F4F4",
"h+	c #F3F3F3",
"i+	c #BDBDBE",
"j+	c #F2F3F8",
"k+	c #F6F0EC",
"l+	c #504844",
"m+	c #13141A",
"n+	c #121614",
"o+	c #40465D",
"p+	c #EDF5F3",
"q+	c #F2F2F6",
"r+	c #ECF0EE",
"s+	c #AFA8A7",
"t+	c #211B22",
"u+	c #E9ECF3",
"v+	c #5B5C57",
"w+	c #6D777F",
"x+	c #E9F1F1",
"y+	c #EFEEF1",
"z+	c #BBBBBD",
"A+	c #EEEEF0",
"B+	c #EEEEE3",
"C+	c #BCB9B4",
"D+	c #BAB7B6",
"E+	c #72746C",
"F+	c #5F666E",
"G+	c #ECEEF1",
"H+	c #F1EDEE",
"I+	c #E1E2E2",
"J+	c #E9EEEC",
"K+	c #DDD8D6",
"L+	c #1A1614",
"M+	c #404343",
"N+	c #121213",
"O+	c #AEB6BF",
"P+	c #E7EFEB",
"Q+	c #BABABB",
"R+	c #ECECEB",
"S+	c #EAECE2",
"T+	c #393936",
"U+	c #3E3B3C",
"V+	c #181718",
"W+	c #B2B7BD",
"X+	c #ECECEF",
"Y+	c #EDEAE8",
"Z+	c #E1E1E2",
"`+	c #EBECEF",
" @	c #EDECE9",
".@	c #CACAC3",
"+@	c #888A84",
"@@	c #B8B7BB",
"#@	c #E9EBF4",
"$@	c #EBEEE9",
"%@	c #ECECEA",
"&@	c #ECECE7",
"*@	c #D7D7D4",
"=@	c #8E8D8F",
"-@	c #B5B4BB",
";@	c #EBECF2",
">@	c #ECECE9",
",@	c #C8C8C9",
"'@	c #D0CED4",
")@	c #CECECD",
"!@	c #D0CFD1",
"~@	c #CFCDD3",
"{@	c #D0D0CC",
"]@	c #CFCED5",
"^@	c #A6A6A5",
"/@	c #CFD0CD",
"(@	c #D0D0CE",
"_@	c #CECECC",
":@	c #CFD0CE",
"<@	c #CFCFCC",
"[@	c #CFD0CC",
"}@	c #C7C7C7",
"|@	c #C3C3C4",
"1@	c #C3C3C3",
"2@	c #9A9B97",
"3@	c #C4C4C1",
"4@	c #C4C2C4",
"5@	c #C3C4C3",
"6@	c #C2C3C2",
"7@	c #9A9A9A",
"8@	c #C3C3C2",
"9@	c #DADADC",
"0@	c #FEFEFA",
"a@	c #F7F8F0",
"b@	c #E3E2E2",
"c@	c #E9EBEB",
"d@	c #C4C4C6",
"e@	c #DBDBDC",
"f@	c #FEFFFA",
"g@	c #C2C3BA",
"h@	c #050404",
"i@	c #080504",
"j@	c #4B4E53",
"k@	c #FEFEFD",
"l@	c #C4C4C0",
"m@	c #FDFDFC",
"n@	c #F6F8F4",
"o@	c #E2E3E0",
"p@	c #E2DED8",
"q@	c #373537",
"r@	c #A9ADB3",
"s@	c #FBFBFA",
"t@	c #C1C1C0",
"u@	c #F9FBFA",
"v@	c #FBFAF6",
"w@	c #A7A19E",
"x@	c #42464C",
"y@	c #F5FAFB",
"z@	c #C2C2C2",
"A@	c #E6E6E6",
"B@	c #F4F4F4",
"C@	c #F3F4F3",
"D@	c #F5F2ED",
"E@	c #393332",
"F@	c #A7ADB4",
"G@	c #F1F3F3",
"H@	c #EFEFEE",
"I@	c #D2CDC7",
"J@	c #0F0D0F",
"K@	c #E3ECF3",
"L@	c #EDECEA",
"M@	c #9E9892",
"N@	c #37363B",
"O@	c #E6EFF7",
"P@	c #EDECE8",
"Q@	c #B2B2B1",
"R@	c #94939A",
"S@	c #EBECF1",
"T@	c #C8C8C8",
"U@	c #E1E1E0",
"V@	c #E1E1E4",
"W@	c #E1E1E3",
"X@	c #070707",
"Y@	c #030403",
"Z@	c #030304",
"  . + + + @ # # # # $ $ $ $ $ $ # $ $ $ % $ $ $ $ $ $ $ $ % . & ",
"% * = - ; > , ' ) ! ~ { ] ^ / ( _ : ] ] { < ] ] ] ] [ [ [ } * $ ",
"$ | 1 2 3 4 5 6 2 7 8 9 0 a b c d e 0 0 9 8 0 0 0 0 0 0 0 f ] $ ",
"$ ] g h i j k l m n 8 9 0 o p q r s 0 0 9 8 0 0 0 0 0 0 0 0 ]   ",
"$ t u v w x y z A B 8 C f D E F G H f f C 8 f f f f f f f f I   ",
"$ J K L * M N O P Q R S T U V W X Y T Z ` R T T T T T T T T J $ ",
"$  ...+.@.#.$.%.&.*.=.-.;.>.,.'.).!.;.;.-.~.;.;.;.;.;.;.;.;.{.$ ",
"$ ].I ^./.(._.:.<.[.}.|.I 1.2.3.4.5.I I |.}.I I I I I I I I ].  ",
"$ 6.7.8.9.0.a.b.c.d.e.f.g.h.i.j.k.l.g.g.f.e.g.g.g.g.g.g.g.g.m.$ ",
"% 6.n.o.p.q.r.s.t.u.}.f.g.v.w.x.y.t.g.g.f.e.g.g.g.g.g.g.g.g.6.% ",
". z.e.e.e.e.e.e.e.e.A.B.e.e.e.e.e.e.e.C.B.D.e.e.e.e.e.e.e.e.E.F.",
"$ G.H.H.9 9 9 9 H.H.I.J.H.H.H.H.H.H.H.9 R K.H.9 L.9 C 9 H.9 { . ",
"$ ] 0 0 ;.M.N.O.0 0 8 9 0 0 0 0 0 0 0 0 9 8 0 f Z P.{.f 0 f ] $ ",
"$ ] Q.R.S.T.U.V.W.f 8 9 f f f f f f f 0 H.X.Y.Z.`. +.+++@+#+]   ",
"  $+%+&+*+=+-+;+>+f 8 9 f f f f f f f f 9 ,+'+)+!+~+{+]+^+B $+  ",
"$ g./+(+_+:+<+[+}+}+R L.|+|+|+|+|+|+|+|+` 1+2+3+4+5+6+7+8+9+N.  ",
"$  .0+a+b+c+d+e+f+g+=.-.h+h+h+h+h+h+h+h+P.i+j+k+l+m+n+o+p+q+{.$ ",
"$ ].r+s+t+u+v+w+x+y+~ { $+$+$+$+$+$+$+$+{ z+A+B+C+D+E+F+G+H+* $ ",
"$ I+J+K+L+M+N+O+P+7.}.f.g.g.g.g.g.g.g.g.f.Q+R+S+T+U+V+W+X+Y+m.$ ",
"% Z+`+ @.@+@@@#@$@R+e.f.g.g.g.g.g.g.g.g.f.e.%@&@*@=@-@;@R+>@m.% ",
". ,@'@f.)@!@f.~@{@]@B.C.f.f.f.f.f.f.f.f.C.^@/@(@_@:@f.<@[@:@}@F.",
"$ ~ |@1@1@|@1@|@1@|@2@I.X.3@4@|@5@6@1@8 I.7@1@1@X.1@1@8@1@8 ~ $ ",
"% $+f f f f f f f f 1@9@0@a@b@b@I+c@f f C 1@f f f f f f f f I % ",
"$ ] 0 0 0 0 0 0 0 0 d@e@f@g@h@i@. j@0 0 H.8 0 0 0 0 0 0 0 0 ] $ ",
"$ ] f f f f f f f k@l@9 m@n@o@p@q@r@f f 9 8 f f f f f f f f $+  ",
"$ g.|+|+|+|+|+|+|+s@t@L.|+u@v@w@x@y@|+O.` z@|+|+|+|+|+|+|+O.N.$ ",
"$ A@h+h+h+h+h+h+h+B@~.-.h+C@D@E@F@G@h+B@-.~.h+h+h+h+h+h+h+h+A@$ ",
"$ * I I I I I I I $+~ { I H@I@J@K@M I $+{ ~ I I I I I I I I *   ",
"$ 6.g.g.g.g.g.g.g.g.}.f.g.L@M@N@O@P@g.g.f.}.g.g.g.g.g.g.g.J m.$ ",
"$ 6.g.g.g.g.g.g.g.g.e.f.g.R+Q@R@S@R+g.g.|.e.g.g.g.g.g.g.g.g.6.$ ",
"$ L.6.6.6.6.6.6.6.6.E.T@6.U@].V@W@U@6.6.T@E.6.6.6.6.6.6.6.6.9 % ",
"  X@                . %       Y@  Z@    X@$               % %   "};
