/* XPM */
static char * zudoku16x16_xpm[] = {
"16 16 115 2",
"  	c #3C3C3C",
". 	c #797A7B",
"+ 	c #78797A",
"@ 	c #797978",
"# 	c #7A7A78",
"$ 	c #656565",
"% 	c #7A7A7A",
"& 	c #7A7979",
"* 	c #797979",
"= 	c #FBFAF8",
"- 	c #7B7A77",
"; 	c #B0B3B5",
"> 	c #FEFFFC",
", 	c #CFCFCF",
"' 	c #FFFEFD",
") 	c #787A78",
"! 	c #84868B",
"~ 	c #FFFFFF",
"{ 	c #D0D0D0",
"] 	c #787878",
"^ 	c #E8E7E8",
"/ 	c #BDBEBF",
"( 	c #696D6D",
"_ 	c #FBFBFC",
": 	c #CDCDCD",
"< 	c #FBFBF9",
"[ 	c #4B494A",
"} 	c #ABAEB2",
"| 	c #FBFBFB",
"1 	c #CECECE",
"2 	c #747474",
"3 	c #F0EFEE",
"4 	c #817F7E",
"5 	c #C2C5C7",
"6 	c #F1F0F0",
"7 	c #C7C7C7",
"8 	c #E9E8E7",
"9 	c #B6B5B6",
"0 	c #606569",
"a 	c #F0F0F0",
"b 	c #757575",
"c 	c #737373",
"d 	c #DCD9D6",
"e 	c #5A5A5B",
"f 	c #7F8287",
"g 	c #EBECED",
"h 	c #C4C4C4",
"i 	c #EBEAE9",
"j 	c #777577",
"k 	c #9D9FA2",
"l 	c #ECECEC",
"m 	c #646464",
"n 	c #CACACA",
"o 	c #AAAAAA",
"p 	c #C9C9C9",
"q 	c #FAFAF7",
"r 	c #818080",
"s 	c #B7B9B9",
"t 	c #FEFFFF",
"u 	c #D0D0CF",
"v 	c #FEFEFC",
"w 	c #929091",
"x 	c #B3B4B5",
"y 	c #FEFEFE",
"z 	c #E8E5E2",
"A 	c #5F5D60",
"B 	c #76797B",
"C 	c #FBFCFC",
"D 	c #FCFCFC",
"E 	c #CECECD",
"F 	c #747478",
"G 	c #696C6E",
"H 	c #F7FCFA",
"I 	c #747475",
"J 	c #D9D6D4",
"K 	c #6E6D71",
"L 	c #5F6466",
"M 	c #EFF2F2",
"N 	c #F1F1F1",
"O 	c #C7C7C8",
"P 	c #F1F0EE",
"Q 	c #767372",
"R 	c #494D53",
"S 	c #EFF1F2",
"T 	c #E8E7E7",
"U 	c #6B6B68",
"V 	c #989AA0",
"W 	c #EBEDEA",
"X 	c #ECECE8",
"Y 	c #777675",
"Z 	c #9A9BA0",
"` 	c #ECECEB",
" .	c #636363",
"..	c #C9C9CB",
"+.	c #C9C9CA",
"@.	c #A9A9A8",
"#.	c #CACAC9",
"$.	c #A9A9A9",
"%.	c #C9C9C8",
"&.	c #C9CAC8",
"*.	c #CFCFD0",
"=.	c #EEEEE8",
"-.	c #757373",
";.	c #87888A",
">.	c #FAFAF9",
",.	c #DAD7D3",
"'.	c #86898C",
").	c #847F7D",
"!.	c #DADFE2",
"~.	c #878586",
"{.	c #EBECEF",
"].	c #3A3A3A",
"^.	c #727272",
"/.	c #626262",
"(.	c #727273",
"  . + @ # $ % & * % $ % % % %   ",
"% = - ; > , ' ) ! ~ { ~ ~ ~ ~ * ",
"] ^ / ( _ : < [ } | 1 | | | | ] ",
"2 3 4 5 6 7 8 9 0 a 7 a a a a b ",
"c d e f g h i j k l h l l l l c ",
"m n n n n o n n n n o n p n n $ ",
"% q r s t { ~ ~ ~ ~ u v w x y % ",
"* z A B C 1 D D D D E 3 F G H * ",
"I J K L M 7 N N N N O P Q R S b ",
"c T U V W h l l l l h X Y Z ` c ",
" ...p +.+.@.#.+.p p $.%.%.%.&.m ",
"% ~ ~ ~ y *.=.-.;.~ , ~ ~ ~ y % ",
"* D D D D E >.,.'.D 1 D D D D * ",
"2 N N N N 7 N ).!.N 7 N N N N b ",
"c l l l l h ` ~.{.l h l l l l c ",
"].^.^.^.^./.^.(.^.^./.^.^.^.^.]."};
